<svg xmlns="http://www.w3.org/2000/svg" width="180" height="180" fill="none" viewBox="0 0 180 180">
    <path fill="#629FA8" fill-rule="evenodd" d="M39.75 73C30.538 73 23 80.425 23 89.5S30.538 106 39.75 106 56.5 98.575 56.5 89.5 48.962 73 39.75 73zm100.5 0c-9.213 0-16.75 7.425-16.75 16.5s7.537 16.5 16.75 16.5c9.213 0 16.75-7.425 16.75-16.5S149.463 73 140.25 73zm-67 16.5C73.25 80.425 80.787 73 90 73c9.213 0 16.75 7.425 16.75 16.5S99.213 106 90 106c-9.213 0-16.75-7.425-16.75-16.5z" clip-rule="evenodd"/>
</svg>
