<svg xmlns="http://www.w3.org/2000/svg" width="873" height="268" fill="none" viewBox="0 0 873 268">
    <rect width="873" height="268" fill="#629FA8" rx="30"/>
    <path fill="#fff" d="M255.255 115.24c0-5.44 3.04-8.48 7.28-8.48 4.4 0 7.44 3.04 7.44 8.48 0 5.52-3.04 8.64-7.44 8.64-4.24 0-7.28-3.12-7.28-8.64zm24.16 0c0-10-6.96-17.04-16.88-17.04-9.76 0-16.8 7.04-16.8 17.04 0 10.08 7.04 17.2 16.8 17.2 9.92 0 16.88-7.12 16.88-17.2zm18.48 43.36h-29.2v-6.48h29.2v6.48zm0-14.64h-29.2v-6.64h-10.48V167h50.08v-29.68h-10.4v6.64zm.4-49.68v15.28h-5.76V95.64h-9.84v38.16h9.84v-15.68h5.76v16.16h10v-40h-10zm69.275 5.6h-10.56v10.72c0 14.32-6.08 28.56-18.96 34.08l6.32 8.72c8.8-4.16 14.8-12.08 18.08-21.92 3.28 9.04 8.96 16.32 17.44 20.16l6-8.56c-12.48-5.36-18.32-18.8-18.32-32.48V99.88zm21.92-5.76v73.92h10.56V94.12h-10.56zm67.114 33.76c-11.6-3.76-16.64-12.48-16.88-20.96h14.4v-8.4h-39.84v8.4h14.64c-.24 9.12-5.44 18.32-17.44 22.24l5.52 8.24c8.48-2.8 14.24-8.48 17.52-15.6 3.2 6.48 8.72 11.68 16.72 14.24l5.36-8.16zm-35.2 22.4h38.64v17.68h10.56v-26.08h-49.2v8.4zm58.96-38.32h-9.76V94.2h-10.56v44.4h10.56v-17.92h9.76v-8.72zm27.114 32.24c-4.96 0-8.64-3.36-8.64-8.96 0-5.6 3.68-9.04 8.64-9.04 4.96 0 8.56 3.44 8.56 8.96 0 5.68-3.6 9.04-8.56 9.04zm0-26.56c-10.72 0-18.72 7.28-18.72 17.52 0 10.4 8 17.68 18.72 17.68 10.64 0 18.56-7.28 18.56-17.68 0-10.24-7.92-17.52-18.56-17.52zm5.2-22.16h-10.56v9.6h-16.32v8.4h42.88v-8.4h-16v-9.6zm41.92 27.52h-10.56V94.2h-10.56v73.68h10.56v-36.16h10.56V123zm9.274-21.2v8.4h24.56c-1.52 16.32-9.68 27.84-28.48 36.88l5.52 8.32c26.16-12.64 33.76-31.04 33.76-53.6h-35.36zm46.64-7.68v73.68h10.64V94.12h-10.64z"/>
</svg>
