<svg xmlns="http://www.w3.org/2000/svg" width="210" height="210" fill="none" viewBox="0 0 210 210">
    <path fill="#6F6F6F" d="M173.006 89.729l-28.227-30.968c-5.586-5.575-14.685-5.583-20.323.045-1.786 1.784-3.002 3.92-3.633 6.199-5.616-4.295-13.716-3.867-18.889 1.296-1.779 1.784-2.995 3.92-3.64 6.19-5.616-4.279-13.717-3.86-18.882 1.305-1.75 1.746-2.95 3.83-3.603 6.048l-13.303-13.28c-5.586-5.577-14.685-5.584-20.323.044-5.593 5.576-5.593 14.66 0 20.243l51.11 51.023-30.315 4.751c-8.19 1.17-14.369 8.275-14.369 16.541 0 6.198 5.053 11.242 11.261 11.242h70.787c11.029 0 21.396-4.287 29.196-12.074l11.809-11.789c7.793-7.771 12.079-18.114 12.079-29.109 0-10.267-3.813-20.108-10.735-27.707zm-6.652 51.517l-11.809 11.789c-6.381 6.371-14.864 9.878-23.888 9.878H59.87c-2.072 0-3.754-1.679-3.754-3.747 0-4.557 3.409-8.477 7.98-9.129l37.65-5.905c1.396-.218 2.545-1.199 2.988-2.541.435-1.334.083-2.81-.916-3.807L47.49 81.552c-2.664-2.66-2.664-6.992.038-9.698 1.337-1.326 3.086-1.993 4.835-1.993 1.75 0 3.498.667 4.835 2l37.56 37.496c1.463 1.462 3.843 1.462 5.307 0 .728-.734 1.096-1.693 1.096-2.653 0-.959-.367-1.918-1.104-2.653L84.72 88.74c-2.665-2.66-2.665-6.986.045-9.69 2.658-2.654 7.004-2.654 9.662 0l15.345 15.318c1.464 1.462 3.844 1.462 5.308 0 .728-.734 1.096-1.694 1.096-2.653 0-.96-.368-1.918-1.104-2.653l-7.83-7.817c-2.665-2.66-2.665-6.985.045-9.69 2.657-2.654 7.004-2.654 9.662 0l7.867 7.853c.015.008.008.008.008.008l.007.007.007.008.008.007h.007c.007 0 .007.007.007.007 1.471 1.394 3.799 1.364 5.232-.074 1.464-1.462 1.464-3.838 0-5.3l-.322-.322c-1.291-1.288-2.005-3.005-2.005-4.826 0-1.821.706-3.53 2.042-4.864 2.673-2.653 6.997-2.646 9.542-.127l28.108 30.84c5.652 6.214 8.776 14.262 8.776 22.664.001 8.994-3.505 17.447-9.879 23.81z"/>
    <path fill="#6F6F6F" d="M83.113 62.883C77.648 50.81 65.576 43 52.363 43 33.737 43 18.58 58.131 18.58 76.726c0 13.19 7.823 25.241 19.917 30.705.503.225 1.029.33 1.547.33 1.426 0 2.792-.825 3.423-2.203.848-1.889.007-4.108-1.877-4.962-9.414-4.25-15.503-13.618-15.503-23.87 0-14.465 11.787-26.232 26.276-26.232 10.27 0 19.655 6.078 23.911 15.477.849 1.888 3.079 2.735 4.963 1.873 1.891-.854 2.732-3.072 1.876-4.96z"/>
</svg>
