<svg xmlns="http://www.w3.org/2000/svg" width="210" height="210" fill="none" viewBox="0 0 210 210">
    <path fill="#6F6F6F" d="M175.855 159.352c1.445.655 3.146.015 3.801-1.43l.001-.002c1.896-4.182 2.873-8.723 2.863-13.315 0-1.586-1.286-2.871-2.872-2.871-1.585 0-2.871 1.285-2.871 2.871.009 3.776-.794 7.509-2.354 10.948-.653 1.445-.012 3.145 1.432 3.799z"/>
    <path fill="#6F6F6F" d="M199.214 101.404c-1.872-1.476-4.323-2.001-6.636-1.423-4.804 1.191-10.365 2.263-16.508 3.209-.372-12.512-10.613-22.468-23.131-22.488-5.679-.02-11.163 2.07-15.389 5.864-4.578-1.24-9.429-1.023-13.879.62-3.694-2.359-7.988-3.607-12.371-3.596-5.993.001-11.752 2.33-16.062 6.495-5.966-2.124-12.586.48-15.504 6.102-7.365.267-14.17 4.004-18.347 10.076-14.798-.941-29.5-3.041-43.968-6.282-4.178-1.028-8.398 1.525-9.427 5.702-1.028 4.178 1.525 8.398 5.702 9.426 1.265.31 2.584.614 3.938.909v28.586c.026 20.099 14.188 37.407 33.884 41.411l4.323 14.159c.368 1.208 1.483 2.033 2.746 2.033h9.844c1.585-.001 2.87-1.286 2.87-2.871v-12.485h67.399v12.485c0 1.585 1.286 2.871 2.871 2.871h9.844c1.263 0 2.378-.825 2.746-2.033l4.325-14.159c19.694-4.007 33.853-21.313 33.879-41.411V116.02c1.355-.296 2.674-.599 3.938-.911 4.178-1.046 6.716-5.281 5.669-9.459-.421-1.683-1.392-3.177-2.759-4.247h.003v.001zm-118.709.512c.19 0 .376.013.563.023l.432.023c1.29.041 2.454-.773 2.858-2 1.137-3.659 5.026-5.703 8.685-4.565.498.155.977.365 1.427.627 1.195.688 2.709.43 3.61-.611 3.309-3.859 8.137-6.08 13.22-6.08 3.716-.01 7.336 1.185 10.316 3.405.839.621 1.948.739 2.899.307 4.053-1.838 8.662-2.027 12.852-.528 1.061.376 2.244.094 3.022-.719 3.271-3.431 7.809-5.367 12.55-5.353 9.617.011 17.412 7.806 17.423 17.423v.146c-21.682 2.68-43.514 3.969-65.362 3.857-12.623 0-24.95-.39-36.504-1.118 3.237-3.09 7.535-4.821 12.01-4.837zM65.56 196.465h-4.848l-2.953-9.668c.704.036 1.411.054 2.123.054h5.677l.001 9.614zm83.73 0h-4.848v-9.614h5.676c.712 0 1.42-.018 2.123-.054l-2.951 9.668zm37.332-51.86c-.023 17.887-12.986 33.132-30.639 36.028-.062 0-.121.023-.183.033-1.88.295-3.779.444-5.682.444H59.883c-1.888 0-3.773-.146-5.637-.436-.078-.013-.153-.035-.232-.041-17.65-2.898-30.611-18.141-30.635-36.028v-27.433c21.202 3.972 50.744 6.285 81.621 6.285 30.876 0 60.436-2.312 81.621-6.282v27.43zm9.844-37.055c.008.935-.625 1.755-1.533 1.985-20.821 5.122-54.44 8.18-89.932 8.18-35.466 0-69.085-3.058-89.933-8.182-1.098-.288-1.755-1.411-1.467-2.51.114-.436.369-.822.724-1.099.35-.276.78-.428 1.224-.432.166.001.331.022.492.062 20.357 5.047 53.614 8.059 88.96 8.059s68.601-3.012 88.96-8.057c.598-.153 1.233-.016 1.716.369.5.39.791.989.789 1.622v.003zM115.746 42.656c7.022 0 12.715-5.693 12.715-12.715s-5.693-12.714-12.715-12.714-12.715 5.692-12.715 12.714c.008 7.02 5.697 12.707 12.715 12.715zm0-19.687c3.851 0 6.973 3.121 6.973 6.972 0 3.851-3.122 6.973-6.973 6.973s-6.973-3.122-6.973-6.973c.005-3.849 3.124-6.968 6.973-6.972zM157.988 59.063c5.664.001 10.256-4.589 10.258-10.251.002-5.664-4.587-10.256-10.251-10.257-5.663-.002-10.255 4.587-10.257 10.25v.004c.006 5.659 4.592 10.245 10.25 10.254zm0-14.766c2.493-.002 4.514 2.017 4.516 4.508.002 2.492-2.017 4.513-4.509 4.515-2.491.002-4.512-2.016-4.515-4.508v-.003c.003-2.49 2.02-4.508 4.508-4.512zM116.563 68.591c0 4.304 3.49 7.793 7.793 7.793 4.304 0 7.793-3.489 7.793-7.793 0-4.303-3.489-7.793-7.793-7.793-4.301.006-7.787 3.492-7.793 7.793zm9.844 0c0 1.133-.918 2.051-2.051 2.051-1.132 0-2.051-.918-2.051-2.05 0-1.133.919-2.052 2.051-2.052 1.133.002 2.05.92 2.051 2.051z"/>
    <path fill="#6F6F6F" d="M78.748 22.706c-1.176-2.068-3.806-2.79-5.873-1.615l-3.148 1.79v-3.809c0-4.636-3.772-8.408-8.409-8.408H29.736c-4.636 0-8.408 3.772-8.408 8.408V105h8.613V19.277h31.172v8.501l-4.794 2.726c-2.068 1.176-2.791 3.805-1.616 5.873.794 1.395 2.25 2.178 3.748 2.178.722 0 1.453-.181 2.125-.563l16.556-9.414c2.068-1.175 2.791-3.805 1.615-5.872z"/>
</svg>
