<svg xmlns="http://www.w3.org/2000/svg" width="210" height="210" fill="none" viewBox="0 0 210 210">
    <path fill="#6F6F6F" d="M206.5 119H203v-10.5c-.009-6.95-4.13-13.236-10.5-16.016V38.5c-.001-1.391-.825-2.65-2.1-3.206 1.365-2.188 2.093-4.714 2.1-7.294 0-7.732-6.268-14-14-14s-14 6.268-14 14c.014 2.465.686 4.881 1.946 7H43.554c1.26-2.119 1.932-4.535 1.946-7 0-7.732-6.268-14-14-14s-14 6.268-14 14c.007 2.58.735 5.106 2.1 7.294-1.275.556-2.1 1.815-2.1 3.206v53.984C11.13 95.264 7.01 101.55 7 108.5V119H3.5c-1.933 0-3.5 1.567-3.5 3.5v49c0 1.933 1.567 3.5 3.5 3.5H7v17.5c0 1.933 1.567 3.5 3.5 3.5h14c1.933 0 3.5-1.567 3.5-3.5V175h154v17.5c0 1.933 1.567 3.5 3.5 3.5h14c1.933 0 3.5-1.567 3.5-3.5V175h3.5c1.933 0 3.5-1.567 3.5-3.5v-49c0-1.933-1.567-3.5-3.5-3.5zm-28-98c3.866 0 7 3.134 7 7s-3.134 7-7 7-7-3.134-7-7 3.134-7 7-7zm-147 0c3.866 0 7 3.134 7 7s-3.134 7-7 7-7-3.134-7-7 3.134-7 7-7zm-7 21h161v49h-14.091c2.316-3.011 3.578-6.7 3.591-10.5v-7c-.011-9.66-7.84-17.489-17.5-17.5h-28c-9.66.011-17.489 7.84-17.5 17.5v7c.013 3.8 1.275 7.489 3.591 10.5H94.409c2.316-3.011 3.578-6.7 3.591-10.5v-7c-.011-9.66-7.84-17.489-17.5-17.5h-28c-9.66.011-17.489 7.84-17.5 17.5v7c.013 3.8 1.275 7.489 3.591 10.5H24.5V42zM168 73.5v7c0 5.8-4.701 10.5-10.5 10.5h-28c-5.799 0-10.5-4.7-10.5-10.5v-7c0-5.8 4.701-10.5 10.5-10.5h28c5.799 0 10.5 4.7 10.5 10.5zm-77 0v7C91 86.3 86.3 91 80.5 91h-28C46.7 91 42 86.3 42 80.5v-7C42 67.7 46.7 63 52.5 63h28C86.3 63 91 67.7 91 73.5zm-77 35c0-5.799 4.7-10.5 10.5-10.5h161c5.799 0 10.5 4.701 10.5 10.5V119H14v-10.5zm7 80.5h-7v-14h7v14zm175 0h-7v-14h7v14zm7-21H7v-42h196v42z"/>
    <path fill="#6F6F6F" d="M31.5 154h-14c-1.933 0-3.5 1.567-3.5 3.5s1.567 3.5 3.5 3.5h14c1.933 0 3.5-1.567 3.5-3.5s-1.567-3.5-3.5-3.5zM192.5 154h-147c-1.933 0-3.5 1.567-3.5 3.5s1.567 3.5 3.5 3.5h147c1.933 0 3.5-1.567 3.5-3.5s-1.567-3.5-3.5-3.5z"/>
</svg>
