<svg xmlns="http://www.w3.org/2000/svg" width="210" height="210" fill="none" viewBox="0 0 210 210">
    <path fill="#6F6F6F" d="M143.07 88.502c6.461 0 11.717-5.258 11.717-11.721 0-6.47-5.256-11.732-11.717-11.732-6.467 0-11.728 5.263-11.728 11.732 0 6.463 5.261 11.721 11.728 11.721zm0-16.191c2.456 0 4.455 2.005 4.455 4.47 0 2.458-1.999 4.459-4.455 4.459-2.462 0-4.466-2-4.466-4.46.001-2.464 2.004-4.469 4.466-4.469zM95.88 136.864c-2.006 0-3.632 1.626-3.632 3.632 0 2.005 1.626 3.631 3.632 3.631h.02c2.006 0 3.621-1.626 3.621-3.631 0-2.006-1.636-3.632-3.641-3.632zM85.922 111.049c-2.006 0-3.632 1.625-3.632 3.631s1.626 3.632 3.632 3.632h.02c2.006 0 3.62-1.626 3.62-3.632 0-2.006-1.635-3.631-3.64-3.631zM117.638 67.103h.021c2.006 0 3.621-1.626 3.621-3.632 0-2.006-1.636-3.631-3.642-3.631-2.004 0-3.631 1.625-3.631 3.631s1.627 3.632 3.631 3.632z"/>
    <path fill="#6F6F6F" d="M147.089 141.961c4.767-4.769 9.238-6.183 14.416-7.821 3.026-.957 6.156-1.947 9.522-3.652 1.789-.907 2.504-3.092 1.598-4.881-.906-1.789-3.091-2.504-4.88-1.598-2.839 1.438-5.554 2.297-8.43 3.207-5.575 1.763-11.341 3.586-17.363 9.611-6.025 6.028-7.851 11.797-9.615 17.375-.682 2.158-1.339 4.224-2.23 6.321-8.916 1.038-15.917 8.441-16.325 17.535-5.845 3.163-12.452 4.727-19.104 4.548.706-4.375-.212-8.668-2.326-12.234 6.777-2.186 12.941-5.944 18.061-11.066 7.516-7.52 9.651-14.271 11.534-20.227 1.64-5.181 3.055-9.655 7.827-14.431 4.773-4.775 9.246-6.191 14.425-7.831 5.954-1.885 12.703-4.021 20.225-11.541 11.253-11.258 15.331-27.016 12.24-41.54 9.529 9.588 13.269 23.649 9.76 36.725-.521 1.937.628 3.929 2.566 4.449.315.084.632.124.943.124 1.603 0 3.07-1.069 3.505-2.691 4.189-15.609-.299-32.398-11.71-43.815L164.431 41.21l-.007-.008c-8.553-8.556-19.925-13.269-32.023-13.269-12.097 0-23.47 4.713-32.023 13.27-7.514 7.525-9.65 14.277-11.534 20.234-1.638 5.183-3.053 9.658-7.826 14.433-3.808 3.809-7.424 5.479-11.36 6.832-.059.019-.118.039-.176.061-.942.32-1.901.625-2.887.937-5.953 1.886-12.701 4.022-20.217 11.542-.097.097-.19.198-.287.296-.126.112-.24.233-.348.36-3.939 4.103-7.07 8.911-9.222 14.133-2.065-1.046-4.396-1.639-6.864-1.639-8.413 0-15.257 6.846-15.257 15.263 0 8.416 6.844 15.263 15.257 15.263 1.671 0 3.279-.275 4.785-.773 1.224 4.951 3.272 9.666 6.059 13.931-2.718 2.974-4.64 6.67-5.455 10.764-2.425 12.143 5.48 23.996 17.621 26.423 2.799.56 5.677.578 8.47.066 2.645 4.261 6.93 7.271 11.942 8.271 1.204.242 2.415.361 3.615.361 3.569 0 7.058-1.052 10.095-3.078 2.071-1.382 3.802-3.136 5.13-5.157 1.26.106 2.52.165 3.779.165 6.674 0 13.283-1.477 19.31-4.316 2.683 6.919 9.4 11.839 17.248 11.839 10.205 0 18.508-8.306 18.508-18.515 0-8.33-5.533-15.388-13.116-17.702.608-1.641 1.117-3.239 1.612-4.805 1.641-5.182 3.056-9.658 7.829-14.432zM29.658 131.656c-4.409 0-7.994-3.589-7.994-8 0-4.412 3.585-8 7.994-8 4.408 0 7.994 3.588 7.994 8 0 4.411-3.586 8-7.994 8zm94.98-12.142c-1.517 1.518-2.767 3.019-3.818 4.505-1.096-1.495-1.721-3.319-1.721-5.222 0-4.859 3.955-8.813 8.817-8.813 2.448 0 4.736 1.034 6.368 2.742-3.145 1.46-6.357 3.497-9.646 6.788zm7.764-84.318c4.41 0 8.705.748 12.742 2.18-2.186 3.969-6.4 6.551-11.096 6.551-5.077 0-9.529-2.992-11.529-7.437 3.184-.852 6.499-1.294 9.883-1.294zM68.788 90.625l.374-.12c.459 1.106.7 2.292.7 3.516 0 5.087-4.135 9.225-9.217 9.225-3.17 0-6.061-1.625-7.736-4.202 5.672-5.184 10.642-6.76 15.879-8.42zm18.655 91.216c-.17.854-.439 1.672-.793 2.445l-.035.08c-.842 1.801-2.161 3.345-3.856 4.477-2.444 1.632-5.374 2.213-8.255 1.636-3.665-.732-6.686-3.249-8.08-6.733-.566-1.412-1.925-2.283-3.372-2.283-.382 0-.77.061-1.152.189-2.51.84-5.21 1.01-7.806.49-8.216-1.643-13.565-9.663-11.924-17.883 1.083-5.449 5.052-9.872 10.358-11.541.929-.292 1.702-.946 2.145-1.814.443-.868.518-1.878.209-2.802-.587-1.752-.513-3.649.211-5.354.782-1.857 2.242-3.299 4.11-4.058 1.868-.759 3.92-.743 5.777.043 3.839 1.625 5.641 6.071 4.015 9.919-.37.882-.899 1.673-1.57 2.351-.686.695-1.064 1.635-1.049 2.612.016.976.424 1.904 1.132 2.576 2.59 2.457 4.242 5.757 4.653 9.292.222 1.913 1.894 3.323 3.82 3.206.943-.055 1.885.012 2.825.204 5.944 1.181 9.818 6.991 8.637 12.948zm-.781-17.435c-1.9-1.249-4.06-2.162-6.42-2.631-.482-.099-.967-.178-1.454-.236-.78-2.969-2.165-5.755-4.061-8.175.364-.605.684-1.237.96-1.892 3.183-7.526-.35-16.24-7.876-19.426-3.646-1.543-7.674-1.573-11.342-.083-3.667 1.49-6.533 4.319-8.065 7.956-.957 2.251-1.333 4.686-1.12 7.088-.357.173-.708.358-1.053.549-2.617-4.156-4.41-8.801-5.27-13.661 2.456-2.709 3.954-6.302 3.954-10.24 0-3.129-.948-6.041-2.57-8.466 1.28-3.824 3.173-7.429 5.592-10.668 3.072 3.714 7.698 5.988 12.708 5.988 9.088 0 16.48-7.397 16.48-16.488 0-2.083-.382-4.105-1.123-5.997 3.307-1.476 6.687-3.551 10.154-7.02 6.025-6.03 7.85-11.798 9.614-17.377 1.793-5.667 3.486-11.02 9.747-17.29 3.02-3.022 6.462-5.47 10.189-7.296 3.05 7.241 10.187 12.149 18.343 12.149 7.552 0 14.308-4.247 17.679-10.73 2.723 1.613 5.264 3.58 7.561 5.877 14.826 14.834 14.826 38.971.001 53.804-6.267 6.265-11.617 7.959-17.281 9.752l-.595.189c-2.921-4.507-7.99-7.36-13.496-7.36-8.866 0-16.08 7.211-16.08 16.075 0 4.589 1.985 8.929 5.327 11.949-.852 2.075-1.5 4.121-2.14 6.142-1.792 5.666-3.485 11.016-9.747 17.283-5.158 5.158-11.568 8.677-18.616 10.235zm56.841 14.493c0 6.204-5.045 11.252-11.245 11.252-6.195 0-11.235-5.047-11.235-11.252 0-6.2 5.04-11.243 11.235-11.243 6.2 0 11.245 5.044 11.245 11.243zM45.203 69.512c7.953 0 14.423-6.473 14.423-14.429s-6.47-14.429-14.423-14.429c-7.947 0-14.413 6.473-14.413 14.43 0 7.955 6.465 14.428 14.413 14.428zm0-21.596c3.948 0 7.16 3.215 7.16 7.167 0 3.951-3.212 7.166-7.16 7.166-3.943 0-7.15-3.214-7.15-7.166 0-3.952 3.207-7.166 7.15-7.166zM78.05 36.584c6.762 0 12.263-5.504 12.263-12.268 0-6.77-5.5-12.277-12.262-12.277-6.768 0-12.273 5.508-12.273 12.278 0 6.764 5.506 12.267 12.273 12.267zm0-17.282c2.758 0 5.001 2.25 5.001 5.015 0 2.76-2.243 5.004-5 5.004-2.763 0-5.01-2.245-5.01-5.005 0-2.765 2.247-5.014 5.01-5.014zM181.691 143.698c-7.67 0-13.909 6.243-13.909 13.914 0 7.673 6.239 13.915 13.909 13.915 7.669 0 13.908-6.242 13.908-13.915 0-7.671-6.239-13.914-13.908-13.914zm0 20.566c-3.666 0-6.647-2.984-6.647-6.652 0-3.667 2.982-6.652 6.647-6.652 3.664 0 6.645 2.984 6.645 6.652.001 3.668-2.981 6.652-6.645 6.652z"/>
    <path fill="#6F6F6F" d="M107.381 98.878c6.462 0 11.718-5.263 11.718-11.732 0-6.463-5.256-11.722-11.718-11.722-6.466 0-11.727 5.259-11.727 11.722 0 6.469 5.261 11.732 11.727 11.732zm0-16.191c2.457 0 4.456 2 4.456 4.46 0 2.464-1.999 4.468-4.456 4.468-2.461 0-4.464-2.004-4.464-4.469 0-2.459 2.002-4.46 4.464-4.46zM179.173 114.734c-.897 1.794-.17 3.975 1.624 4.872.521.261 1.075.384 1.621.384 1.332 0 2.614-.735 3.251-2.008l.01-.021c.897-1.794.164-3.965-1.629-4.862-1.794-.896-3.98-.159-4.877 1.635z"/>
</svg>
