<svg xmlns="http://www.w3.org/2000/svg" width="210" height="210" fill="none" viewBox="0 0 210 210">
    <path fill="#6F6F6F" d="M192.707 76.964l-3.729-3.729-55.953-55.953c-1.49-1.49-3.478-2.31-5.595-2.31-2.118 0-4.105.82-5.595 2.31l-18.65 18.651c-1.491 1.49-2.312 3.477-2.312 5.595s.821 4.105 2.311 5.595l3.731 3.73 6.003 6.005-5.892 9.82c-3.119 5.199-2.303 11.823 1.983 16.11l.777.777-13.567 6.167c-2.6 1.182-4.944 2.806-6.963 4.825l-68.77 68.769c-7.18 7.181-7.363 18.876-.404 26.071 3.471 3.589 8.131 5.59 13.12 5.631h.16c4.93 0 9.56-1.916 13.05-5.407l68.955-68.954c2.019-2.019 3.642-4.362 4.825-6.962l6.166-13.568.843.842c2.546 2.546 5.917 3.868 9.323 3.868 2.33 0 4.676-.618 6.787-1.884l9.821-5.893 6 6.001 3.734 3.733c1.491 1.491 3.477 2.312 5.595 2.312s4.105-.821 5.595-2.311l18.651-18.651c3.084-3.085 3.084-8.105 0-11.19zM112.51 48.988l3.731-3.73 48.49 48.491-3.73 3.73-48.491-48.491zm55.951 41.03l-48.491-48.49 3.73-3.73 48.491 48.49-3.73 3.73zm7.46-7.46l-48.491-48.49 7.461-7.46 48.491 48.49-7.461 7.46zm-69.006-42.896l18.651-18.65c.493-.494 1.155-.766 1.864-.766.709 0 1.371.272 1.866.766l1.864 1.865-22.38 22.38-1.865-1.865c-.494-.494-.766-1.157-.766-1.865-.001-.707.272-1.37.766-1.864zm8.474 71.86c-.919 2.023-2.181 3.844-3.752 5.416l-68.954 68.953c-2.52 2.521-5.884 3.895-9.436 3.862-3.564-.029-6.892-1.458-9.373-4.024-4.97-5.137-4.815-13.514.343-18.673l68.77-68.769c1.57-1.57 3.392-2.833 5.414-3.753l15.369-6.985 8.604 8.606-6.985 15.367zm25.208-13.083c-3.119 1.872-7.095 1.383-9.667-1.19l-18.191-18.191c-2.572-2.572-3.061-6.547-1.19-9.666l5.214-8.69 32.524 32.523-8.69 5.215zm48.38-14.015l-18.651 18.65c-.494.495-1.156.766-1.865.766-.709 0-1.371-.271-1.865-.766l-1.865-1.865 22.38-22.38 1.865 1.865c1.029 1.028 1.029 2.701.001 3.73z"/>
    <path fill="#6F6F6F" d="M93.088 108.991h-.05c-2.095.013-4.07.841-5.562 2.332l-26.11 26.11c-1.03 1.03-1.03 2.7 0 3.73 1.03 1.03 2.7 1.03 3.73 0l26.11-26.11c.504-.504 1.166-.783 1.865-.787.702 0 1.346.267 1.832.754.497.496.77 1.159.77 1.865s-.273 1.368-.77 1.865l-59.68 59.681c-1.029 1.028-2.702 1.028-3.73 0-.49-.491-.758-1.142-.754-1.833.005-.7.284-1.362.787-1.865l26.11-26.11c1.03-1.03 1.03-2.7 0-3.73-1.03-1.03-2.7-1.03-3.73 0l-26.11 26.11c-1.49 1.491-2.32 3.466-2.332 5.563-.013 2.112.803 4.099 2.299 5.595 1.542 1.543 3.568 2.314 5.595 2.314 2.026-.001 4.052-.771 5.595-2.314l59.68-59.682c1.494-1.492 2.317-3.48 2.317-5.595 0-2.115-.823-4.102-2.316-5.596-1.483-1.482-3.45-2.297-5.546-2.297z"/>
</svg>
