<svg xmlns="http://www.w3.org/2000/svg" width="707" height="458" fill="none" viewBox="0 0 707 458">
    <g clip-path="url(#clip0)">
        <path fill="#fff" d="M96.179 414.522c-.085 1.459-.277 3.003-.58 4.638-.303 1.635-1.137 2.967-2.509 3.995-1.031.857-2.19 1.374-3.476 1.549-1.287.171-2.552.107-3.796-.197-1.244-.303-2.424-.772-3.54-1.416-1.117-.645-2.015-1.444-2.7-2.386-2.914-3.611-5.598-7.323-8.043-11.147-2.44-3.823-4.912-7.668-7.4-11.535l-10.807-16.371c-1.457-2.322-3.003-4.915-4.63-7.796-1.632-2.876-3.306-5.56-5.018-8.058l-.388 49.235v1.161c0 1.374-.24 2.727-.707 4.064-.473 1.331-1.265 2.465-2.382 3.413-.855.687-1.972 1.161-3.343 1.422-2.148.426-3.923.304-5.337-.383-1.42-.693-2.53-1.635-3.344-2.839-.819-1.203-1.371-2.593-1.67-4.186-.302-1.592-.366-3.158-.196-4.708v-2.188l.266-10.06.128-18.688c.085-2.753.127-5.565.127-8.446v-8.825c-.085-3.69-.064-7.605.064-11.727s.276-7.993.452-11.604c.17-1.976.643-3.653 1.414-5.022.34-1.204 1.244-2.237 2.7-3.094.941-.597 2.164-.991 3.663-1.161 1.499-.171 2.807-.128 3.923.128.43.17.856.362 1.286.575.43.218.856.452 1.287.713.43.341.84.687 1.222 1.028.388.341.75.73 1.095 1.161.431.432.814.879 1.16 1.353.34.474.685.927 1.025 1.353.255.516.516.99.776 1.421.26.432.553.858.899 1.289l1.414 2.061 29.715 46.919v-8.511c0-2.748-.021-5.56-.064-8.441-.042-2.881-.111-5.863-.197-8.957 0-3.611.022-7.477.064-11.605.043-4.122.15-7.988.325-11.599 0-1.459.43-3.137 1.286-5.027.43-1.113 1.159-2.019 2.185-2.706 1.031-.687 2.19-1.161 3.476-1.422 1.287-.255 2.573-.255 3.86 0 1.286.261 2.397.778 3.343 1.55.255.256.516.554.776.9.266.352.479.74.649 1.167.43 1.118.685 2.108.776 2.966.255 1.209.388 2.279.388 3.222 0 10.742.016 21.696.064 32.864.042 11.173.106 22.128.196 32.869 0 1.204.043 2.381.128 3.542s.08 2.338-.005 3.547zM139.662 336.156c5.746-2.146 10.956-3.094 15.628-2.833 4.673.261 8.856 1.443 12.545 3.541 3.684 2.109 6.836 4.921 9.457 8.447 2.616 3.52 4.737 7.471 6.368 11.86 1.287 3.264 2.27 6.699 2.961 10.31.686 3.611 1.095 7.2 1.223 10.763.128 3.568 0 7.072-.388 10.507-.383 3.441-1.01 6.62-1.866 9.539-.516 1.975-1.116 3.781-1.802 5.416-.686 1.635-1.504 3.264-2.445 4.899-2.142 3.691-4.912 6.705-8.298 9.022-3.392 2.322-7.097 3.946-11.126 4.894-2.748.687-5.576 1.006-8.495.969-2.918-.042-5.789-.431-8.622-1.161-2.828-.729-5.555-1.805-8.17-3.216-2.616-1.422-4.997-3.206-7.139-5.353-2.658-2.577-4.848-5.56-6.56-8.957-1.712-3.398-3.046-6.966-3.987-10.699-.946-3.739-1.547-7.499-1.802-11.28-.255-3.781-.255-7.387 0-10.822.255-3.179.877-6.571 1.866-10.182.989-3.611 2.424-7.088 4.311-10.438 1.882-3.355 4.183-6.38 6.884-9.091 2.706-2.716 5.858-4.756 9.457-6.135zm30.108 55.162c1.032-4.036 1.457-8.59 1.287-13.66-.176-5.07-.989-9.836-2.446-14.31-.946-2.748-2.121-5.176-3.54-7.28-1.419-2.103-3.088-3.712-5.018-4.83-1.93-1.118-4.183-1.672-6.756-1.672-2.573 0-5.449.772-8.623 2.322-1.887.948-3.497 2.236-4.826 3.866-1.329 1.635-2.403 3.478-3.216 5.544-.819 2.061-1.457 4.213-1.93 6.444-.473 2.231-.749 4.378-.835 6.444-.17 2.237-.217 4.575-.127 7.019.085 2.45.361 4.9.834 7.349.468 2.45 1.133 4.772 1.994 6.961.856 2.194 2.015 4.149 3.471 5.869 2.227 2.577 4.827 4.361 7.782 5.347 2.961.995 5.896 1.145 8.814.452 4.715-1.028 8.319-4.164 10.807-9.41 1.037-1.896 1.813-4.042 2.328-6.455zM273.205 337.061c.946 1.119 1.419 2.28 1.419 3.478 0 .516-.026 1.049-.069 1.614-.042.553-.106 1.049-.186 1.48-.26.948-.818 1.848-1.674 2.705-.686.517-1.632.9-2.828 1.161-.601.171-1.207.304-1.802.384-.596.09-1.239.218-1.925.389-.606.085-1.206.127-1.802.127H255.849c-1.542.086-3.067.123-4.566.123h-4.439c.085 2.668.128 5.523.128 8.569 0 3.051-.022 6.598-.064 10.635-.043 4.037-.091 8.723-.128 14.049-.042 5.331-.064 11.514-.064 18.56v9.793c0 .863.043 1.502.128 1.933v.97c0 .303-.043.665-.128 1.091-.17.778-.303 1.678-.382 2.711 0 .426-.043.836-.128 1.22-.085.389-.218.793-.388 1.225-.34.34-.516.596-.516.772l-.388.777c-.43.858-1.244 1.673-2.44 2.45-1.887.948-3.986 1.161-6.304.645-1.457-.171-2.573-.56-3.344-1.161-.771-.778-1.329-1.545-1.669-2.322-.516-.948-.819-1.854-.898-2.711-.255-.772-.388-1.592-.388-2.445v-66.25h-3.216c-1.632 0-3.365-.016-5.21-.064-1.844-.042-3.583-.106-5.209-.191-1.632-.086-2.749-.171-3.344-.261-.516-.086-1.313-.213-2.381-.384-1.074-.17-1.951-.341-2.642-.516-1.797-.517-3.216-1.332-4.242-2.45-.947-1.119-1.414-2.359-1.414-3.739v-1.544c0-.517.085-.991.255-1.422.255-1.028.941-1.885 2.057-2.572.34-.261.877-.581 1.605-.97.729-.388 1.436-.665 2.121-.836 1.032-.341 2.318-.602 3.86-.777.685-.085 1.371-.128 2.057-.128h10.743c2.7 0 5.55-.043 8.553-.128 4.976-.085 9.925-.106 14.858-.064 4.933.048 9.845.149 14.73.325 1.111.091 2.19.213 3.216.383 1.026.176 2.057.474 3.088.906.776.255 1.499.575 2.185.969.675.394 1.233.889 1.664 1.491zM294.043 412.589v-1.934l.127-10.177.123-18.953c.09-2.748.132-5.582.132-8.505v-9.022-8.249c0-2.402.086-5.113.256-8.116v-.517c.09-.857.148-1.742.191-2.642.043-.905.064-1.826.064-2.774.09-1.55.558-3.222 1.419-5.028.595-1.203 1.499-2.231 2.706-3.088 1.371-.693 2.7-1.034 3.987-1.034.685 0 1.307.027 1.866.07.558.042 1.095.112 1.61.191 1.117.171 2.105.687 2.961 1.545.516.431.984 1.118 1.419 2.066.165.517.325 1.007.447 1.481.128.474.239.969.324 1.48.085.602.149 1.161.197 1.672.042.517.064 1.028.064 1.545 0 .602-.022 1.14-.064 1.614-.048.473-.069.969-.069 1.48v2.189l-.776 66.894v1.289c0 .261-.022.581-.064.969-.043.389-.112.837-.191 1.353-.171.432-.325.884-.452 1.358-.123.469-.282.964-.447 1.481-.26.426-.542.836-.84 1.219-.297.384-.664.751-1.089 1.097-.692.687-1.808 1.161-3.344 1.417-2.323.517-4.508.304-6.56-.644-1.031-.687-1.765-1.545-2.19-2.573-.26-.261-.383-.516-.383-.777-.09-.171-.175-.304-.26-.384-.085-.09-.17-.218-.261-.388-.164-.432-.303-.879-.382-1.353-.08-.474-.123-.969-.123-1.481-.09-.431-.154-.857-.196-1.288-.043-.432-.107-.858-.192-1.289-.095-.693-.095-1.422-.01-2.194zM404.686 402.662c1.111 2.492 1.158 4.92.127 7.28-1.031 2.364-2.663 4.532-4.89 6.513-2.233 1.97-4.779 3.691-7.655 5.155-2.871 1.459-5.598 2.492-8.165 3.094-2.833.597-5.816.879-8.947.836-3.131-.048-6.262-.431-9.393-1.161-3.131-.735-6.171-1.805-9.132-3.222-2.961-1.416-5.683-3.158-8.17-5.219-2.999-2.492-5.337-5.474-7.012-8.957-1.669-3.478-2.892-7.201-3.663-11.152-.776-3.946-1.18-7.925-1.217-11.919-.048-3.994.064-7.754.324-11.279.256-3.174.899-6.487 1.925-9.922 1.031-3.435 2.466-6.806 4.316-10.113 1.839-3.307 4.072-6.38 6.687-9.213 2.616-2.834 5.678-5.241 9.197-7.217 2.658-1.544 5.64-2.593 8.941-3.158 3.301-.553 6.65-.687 10.041-.383 3.387.304 6.603 1.028 9.643 2.189 3.041 1.161 5.64 2.732 7.788 4.708 1.371 1.203 2.807 2.875 4.311 5.022 1.504 2.146 2.589 4.34 3.28 6.571.686 2.237.707 4.319.064 6.253-.644 1.933-2.377 3.243-5.21 3.93-1.201.341-2.275.405-3.211.192-.946-.213-1.802-.597-2.572-1.161-.771-.554-1.499-1.22-2.185-1.997-.691-.778-1.329-1.55-1.93-2.322-2.057-2.493-4.46-4.192-7.203-5.092-2.748-.905-5.464-1.118-8.165-.644-2.706.474-5.236 1.592-7.596 3.35-2.355 1.762-4.178 4.021-5.465 6.769-1.376 2.923-2.466 6.124-3.28 9.602-.813 3.482-1.259 7.003-1.35 10.571-.09 3.563.234 7.019.968 10.374.728 3.35 1.993 6.316 3.795 8.894 1.372 2.061 3.062 3.733 5.082 5.022 2.015 1.289 4.178 2.189 6.496 2.71 2.323.517 4.651.597 7.012.256 2.354-.341 4.651-1.113 6.883-2.322.686-.341 1.436-.836 2.254-1.48.808-.645 1.654-1.31 2.509-1.997.856-.687 1.733-1.332 2.637-1.934.898-.596 1.866-1.027 2.897-1.288 1.542-.517 3.232-.469 5.077.127 1.818.602 3.21 1.848 4.157 3.734zM443.794 348.527l-.261 20.238h5.146c3.519-.086 6.645-.128 9.393-.128 2.748 0 5.794.048 9.138.128h.643c1.026 0 2.036.021 3.02.069.988.042 1.951.064 2.897.064 1.026.09 2.014.239 2.961.447.946.218 1.881.453 2.828.714 1.456.516 2.658 1.288 3.604 2.322.856 1.118 1.286 2.359 1.286 3.738v1.481c0 .553-.09 1.049-.26 1.48-.17.948-.729 1.806-1.669 2.572-.431.602-1.244 1.028-2.446 1.289-1.116.341-2.232.559-3.343.645-1.207.261-2.403.383-3.604.383h-6.05l-23.804.128-.255 25.264 25.601.256h7.973c.601 0 1.159.048 1.67.128.685.17 1.307.282 1.871.325.553.042 1.089.149 1.605.325 1.031.34 1.887.814 2.573 1.416.856.863 1.419 1.763 1.669 2.711.09.426.149.879.191 1.353.048.474.022.969-.063 1.48 0 1.374-.431 2.62-1.287 3.739-1.026 1.203-2.232 1.975-3.604 2.322-1.802.777-3.774 1.161-5.916 1.161-.947.085-1.925.127-2.961.127-1.026 0-2.015.043-2.961.123h-.771c-6.692.17-13.635.17-20.843 0-1.717 0-3.089-.021-4.115-.064-1.031-.043-1.95-.064-2.769-.064H435.023c-1.972.17-3.604-.176-4.885-1.033-.946-.597-1.675-1.417-2.19-2.445-.256-.26-.383-.521-.383-.777-.09-.171-.17-.304-.261-.389-.085-.085-.17-.213-.255-.383-.175-.432-.303-.879-.388-1.353-.085-.474-.122-.927-.122-1.353-.09-.431-.149-.862-.197-1.288-.042-.432-.106-.858-.191-1.289v-2.061c0-.341.021-.693.069-1.033.043-.341.064-.687.064-1.028v-10.055l.26-18.56v-17.143c0-3.088.022-5.842.064-8.249.043-2.402.112-5.022.191-7.861v-.639c.085-.948.149-1.826.192-2.641.048-.815.069-1.656.069-2.519.085-1.715.553-3.392 1.414-5.022.34-.687.712-1.289 1.095-1.805.383-.517.92-.948 1.611-1.289 1.286-.778 2.615-1.161 3.986-1.161.686 0 1.202.042 1.542.128v-.128h6.501c.899 0 1.866-.022 2.897-.064 1.026-.048 2.446-.069 4.242-.069 3.434-.086 6.693-.128 9.781-.128 3.089 0 6.262.048 9.521.128h.516c.946.09 1.929.127 2.961.127 1.031 0 2.014.043 2.96.128.947 0 1.882.112 2.828.325.947.213 1.882.495 2.828.836 1.457.432 2.658 1.161 3.605 2.189.776 1.209 1.158 2.407 1.158 3.611v1.48c0 .474-.085.927-.255 1.353-.09.863-.6 1.763-1.547 2.711-.34.17-.707.383-1.089.644-.388.256-.835.474-1.351.639-.521.176-1.052.282-1.61.325-.558.048-1.095.112-1.611.197-.686.171-1.308.256-1.866.256h-7.66l-25.728.128v.388h.005zM585.444 415.038c-.09 1.028-.213 2.109-.383 3.222-.175 1.113-.473 2.141-.903 3.089-.431 1.033-.989 1.806-1.67 2.322-.946.858-2.062 1.332-3.343 1.422-1.207.426-2.36.554-3.477.384-1.111-.171-2.142-.474-3.083-.9-1.207-.778-2.084-1.699-2.637-2.775-.558-1.076-.967-2.216-1.222-3.419-.255-1.204-.383-2.45-.383-3.733v-13.666l-.128-19.72v-3.222-2.125c0-.645-.021-1.374-.063-2.189-.048-.815-.069-1.997-.069-3.542 0-.261.021-.708.069-1.352.042-.645-.027-2.386-.192-5.219-3.349 5.586-6.113 10.076-8.303 13.463-2.185 3.397-4.035 6.018-5.534 7.866-1.499 1.853-2.806 3.094-3.917 3.738-1.117.645-2.276 1.007-3.477 1.097-.686.085-1.371-.048-2.057-.389-.691-.34-1.35-.772-1.994-1.288-.643-.517-1.243-1.05-1.802-1.609-.558-.559-1.01-1.097-1.35-1.613-2.062-2.578-4.375-5.672-6.953-9.283-2.567-3.605-5.231-7.988-7.974-13.143 0 .09-.026 1.501-.069 4.255-.042 2.753-.063 6.161-.063 10.246 0 4.085-.022 8.463-.064 13.149-.048 4.681-.091 9.043-.128 13.08-.048 4.042-.112 7.413-.191 10.113-.091 2.711-.176 4.063-.261 4.063 0 1.46-.34 2.812-1.026 4.064-.691 1.241-1.61 2.252-2.769 3.025-1.159.772-2.509 1.203-4.056 1.289-1.542.085-3.211-.341-5.013-1.289-1.116-.687-1.951-1.673-2.509-2.967-.558-1.288-.925-2.492-1.095-3.61-.09-1.204-.149-2.36-.191-3.478-.048-1.118-.07-2.279-.07-3.478l.128-10.054.128-19.854v-17.266c0-7.477.255-14.821.776-22.042 0-.948.106-1.827.324-2.642.213-.814.489-1.613.835-2.386.685-1.374 1.584-2.401 2.7-3.088 1.286-.778 2.658-1.167 4.114-1.167.596 0 1.181.027 1.739.07.553.042 1.089.111 1.605.191 1.717.341 3.2 1.353 4.439 3.025 1.244 1.678 2.424 3.116 3.54 4.325.686.772 1.419 1.714 2.185 2.833.776 1.118 1.547 2.279 2.318 3.477.776 1.209 1.499 2.365 2.19 3.478.685 1.118 1.286 2.109 1.802 2.966 2.227 3.611 4.22 6.918 5.98 9.922 1.754 3.009 3.413 5.592 4.954 7.733.261-.256.553-.618.904-1.097.335-.469.707-.986 1.09-1.545.388-.554.728-1.092 1.031-1.608.298-.522.537-.948.707-1.289.856-1.374 1.712-2.732 2.573-4.063.85-1.332 1.775-2.748 2.764-4.256.989-1.501 2.015-3.158 3.089-4.963 1.073-1.805 2.333-3.866 3.795-6.183.601-1.033 1.371-2.279 2.318-3.739.946-1.459 2.014-2.881 3.216-4.255 1.201-1.374 2.466-2.551 3.795-3.547 1.329-.985 2.679-1.48 4.056-1.48.686 0 1.281.027 1.802.069.516.043 1.026.112 1.542.192 1.026.09 2.015.559 2.961 1.422.685.687 1.201 1.416 1.541 2.189.34 1.118.558 2.061.644 2.833.09.602.148 1.161.191 1.672.048.517.069 1.033.069 1.55 0 4.809.042 9.581.128 14.31.085 4.724.122 9.49.122 14.304 0 5.848.021 11.86.069 18.049.042 6.183.064 12.201.064 18.043 0 1.209.042 2.497.127 3.871.075 1.369.075 2.743-.005 4.122zM623.782 348.527l-.261 20.238h5.146c3.519-.086 6.645-.128 9.393-.128 2.748 0 5.794.048 9.138.128h.643c1.026 0 2.036.021 3.019.069.989.042 1.951.064 2.897.064 1.026.09 2.015.239 2.961.447.947.218 1.882.453 2.828.714 1.457.516 2.658 1.288 3.604 2.322.856 1.118 1.287 2.359 1.287 3.738v1.481c0 .553-.09 1.049-.261 1.48-.17.948-.728 1.806-1.669 2.572-.43.602-1.244 1.028-2.445 1.289-1.116.341-2.233.559-3.344.645-1.206.261-2.402.383-3.604.383h-6.049l-23.804.128-.255 25.264 25.6.256h7.974c.601 0 1.159.048 1.669.128.686.17 1.308.282 1.871.325.553.042 1.09.149 1.606.325 1.031.34 1.887.814 2.573 1.416.856.863 1.419 1.763 1.669 2.711.09.426.149.879.191 1.353.048.474.021.969-.064 1.48 0 1.374-.43 2.62-1.286 3.739-1.026 1.203-2.233 1.975-3.604 2.322-1.802.777-3.774 1.161-5.917 1.161-.946.085-1.924.127-2.96.127-1.026 0-2.015.043-2.961.123h-.771c-6.693.17-13.635.17-20.843 0-1.717 0-3.089-.021-4.115-.064-1.031-.043-1.951-.064-2.769-.064H615.011c-1.972.17-3.604-.176-4.885-1.033-.947-.597-1.675-1.417-2.191-2.445-.255-.26-.382-.521-.382-.777-.091-.171-.17-.304-.261-.389-.085-.085-.17-.213-.255-.383-.175-.432-.303-.879-.388-1.353-.085-.474-.122-.927-.122-1.353-.091-.431-.149-.862-.197-1.288-.043-.432-.106-.858-.191-1.289v-2.061c0-.341.021-.693.069-1.033.042-.341.064-.687.064-1.028v-10.055l.26-18.56v-17.143c0-3.088.021-5.842.064-8.249.042-2.402.111-5.022.191-7.861v-.639c.085-.948.149-1.826.192-2.641.047-.815.069-1.656.069-2.519.085-1.715.552-3.392 1.414-5.022.34-.687.712-1.289 1.095-1.805.382-.517.919-.948 1.61-1.289 1.287-.778 2.616-1.161 3.987-1.161.686 0 1.202.042 1.542.128v-.128H623.197c.898 0 1.866-.022 2.897-.064 1.026-.048 2.445-.069 4.242-.069 3.434-.086 6.693-.128 9.781-.128 3.089 0 6.262.048 9.521.128h.515c.947.09 1.93.127 2.961.127 1.032 0 2.015.043 2.961.128.946 0 1.882.112 2.828.325.946.213 1.882.495 2.828.836 1.457.432 2.658 1.161 3.604 2.189.776 1.209 1.159 2.407 1.159 3.611v1.48c0 .474-.085.927-.255 1.353-.09.863-.601 1.763-1.547 2.711-.34.17-.707.383-1.09.644-.388.256-.834.474-1.35.639-.521.176-1.052.282-1.611.325-.558.048-1.095.112-1.61.197-.686.171-1.308.256-1.866.256h-7.66l-25.729.128v.388h.006zM407.726 48.031c2.669-4.627 8.66-5.98 13.279-3.307l.861.5c4.62 2.669 5.693 8.106 3.025 12.74l-4.651 8.073c5.889 4.213 9.961 7.989 13.773 12.212l6.485-11.253c7.283-12.643 2.094-28.535-10.525-35.836l-.856-.5c-12.614-7.297-28.147-3.393-35.435 9.25l-6.289 10.917c5.507 1.268 10.759 2.983 15.751 5.16l4.582-7.956zM373.482 277.793l-128.478-74.319c-16.532-9.559-28.024-30.27-16.712-49.9 8.962-15.556 27.525-16.909 36.445-17.569 1.196-.086 2.753.026 3.301-.059 12.667-1.907 22.874-15.199 37.79-41.087l1.493-2.599c21.131-36.666 62.254-47.136 100.729-25.03 38.412 22.373 49.921 63.284 28.791 99.951l-1.494 2.593c-16.282 28.268-20.285 42.429-15.825 53.81.196.511.898 1.795 1.435 2.881 4.013 8.132 12.439 25.046 3.492 40.57-11.306 19.636-34.669 20.189-50.967 10.758zM396.1 87.983c-26.653-15.3-54.152-8.856-68.483 16.015l-1.494 2.593c-16.011 27.779-30.305 49.257-54.747 52.942-1.446.218-3.041.304-4.827.431-5.565.41-14.996 1.252-17.632 5.821-4.535 7.866 4.975 15.732 7.798 17.367l128.477 74.313c.128.075 13.157 7.041 18.467-2.173 2.547-4.415-1.759-13.324-4.098-18.069-.856-1.731-1.542-3.249-2.105-4.708-8.58-21.888-.011-43.899 17.611-74.473l1.494-2.599c14.337-24.865 6.156-51.946-20.461-67.46zM291.576 270.715c13.316 7.701 29.715 4.809 39.448-7.061l-53.062-30.692c-5.406 14.374.298 30.053 13.614 37.753z"/>
    </g>
    <defs>
        <clipPath id="clip0">
            <path fill="#fff" d="M0 0H707V458H0z"/>
        </clipPath>
    </defs>
</svg>
