<svg xmlns="http://www.w3.org/2000/svg" width="599" height="102" fill="none" viewBox="0 0 599 102">
    <path fill="#629FA8" d="M163.413 83.11c-.065 1.115-.211 2.295-.442 3.544-.232 1.248-.869 2.265-1.917 3.05-.787.655-1.672 1.05-2.655 1.184-.982.13-1.949.081-2.899-.15-.95-.232-1.851-.59-2.704-1.082-.852-.493-1.538-1.103-2.062-1.823-2.225-2.757-4.275-5.593-6.143-8.513-1.863-2.92-3.751-5.857-5.651-8.81l-8.254-12.504c-1.113-1.773-2.294-3.754-3.537-5.954-1.246-2.197-2.525-4.247-3.832-6.154L123.02 83.5v.887c0 1.05-.182 2.083-.54 3.104-.361 1.016-.966 1.883-1.819 2.607-.653.525-1.506.887-2.553 1.086-1.641.325-2.997.232-4.077-.293-1.084-.529-1.932-1.249-2.553-2.168-.626-.92-1.048-1.98-1.275-3.197-.232-1.216-.28-2.412-.15-3.596V80.26l.203-7.684.097-14.273c.065-2.103.097-4.25.097-6.45v-6.74c-.064-2.82-.048-5.809.049-8.957.098-3.148.211-6.105.345-8.863.13-1.51.492-2.79 1.08-3.836.26-.92.95-1.708 2.063-2.363.718-.456 1.652-.757 2.797-.887 1.145-.13 2.144-.097 2.996.098.329.13.654.276.983.44.329.166.654.345.982.544.329.26.642.525.934.785.297.26.573.557.837.887.328.33.621.671.885 1.033.26.362.523.708.783 1.033.195.395.394.757.593 1.086.199.33.422.655.686.985l1.08 1.574 22.696 35.834v-6.5c0-2.098-.017-4.246-.049-6.447-.033-2.2-.085-4.478-.15-6.841 0-2.758.016-5.71.048-8.863.033-3.148.114-6.101.248-8.86 0-1.114.329-2.395.983-3.839.328-.85.885-1.541 1.668-2.066.788-.525 1.673-.887 2.655-1.086.983-.195 1.966-.195 2.948 0 .983.2 1.831.594 2.554 1.183.195.196.394.423.593.688.203.268.365.565.495.89.329.855.524 1.611.593 2.266.194.924.296 1.741.296 2.461 0 8.204.012 16.571.049 25.1.032 8.534.081 16.901.15 25.105 0 .92.032 1.818.097 2.705s.061 1.786-.004 2.709zM196.624 23.258c4.389-1.64 8.368-2.363 11.937-2.164 3.568.2 6.764 1.102 9.581 2.705 2.814 1.61 5.221 3.758 7.223 6.45 1.997 2.69 3.617 5.707 4.864 9.059.982 2.493 1.733 5.117 2.261 7.875.524 2.757.837 5.499.934 8.22.098 2.725 0 5.402-.296 8.025-.293 2.628-.772 5.056-1.425 7.285-.394 1.51-.853 2.888-1.377 4.137-.523 1.249-1.149 2.493-1.867 3.742-1.637 2.819-3.752 5.12-6.338 6.89-2.59 1.774-5.42 3.014-8.498 3.738-2.099.525-4.259.769-6.487.74-2.229-.032-4.422-.329-6.586-.886-2.16-.558-4.243-1.38-6.24-2.457-1.998-1.086-3.816-2.449-5.453-4.088-2.03-1.968-3.702-4.246-5.01-6.841-1.307-2.595-2.326-5.32-3.045-8.172-.722-2.855-1.181-5.727-1.376-8.615-.195-2.888-.195-5.642 0-8.265.195-2.428.67-5.02 1.425-7.777.755-2.758 1.851-5.414 3.293-7.972 1.437-2.563 3.195-4.873 5.257-6.944 2.067-2.074 4.475-3.632 7.223-4.685zm22.996 42.13c.788-3.082 1.112-6.56.983-10.432-.134-3.873-.756-7.513-1.868-10.93-.723-2.099-1.62-3.953-2.704-5.56-1.084-1.607-2.359-2.835-3.833-3.69-1.473-.853-3.195-1.276-5.16-1.276-1.965 0-4.161.59-6.585 1.773-1.442.724-2.672 1.708-3.687 2.953-1.015 1.249-1.835 2.656-2.456 4.234-.625 1.575-1.113 3.218-1.474 4.922-.361 1.704-.572 3.343-.637 4.922-.13 1.708-.167 3.494-.098 5.36.065 1.872.276 3.743.638 5.614.357 1.87.864 3.644 1.522 5.316.654 1.676 1.539 3.169 2.651 4.482 1.702 1.969 3.687 3.332 5.944 4.084 2.262.76 4.503.875 6.732.346 3.601-.785 6.354-3.18 8.254-7.187.791-1.448 1.384-3.088 1.778-4.93zM298.62 23.95c.723.853 1.084 1.74 1.084 2.655 0 .395-.02.802-.053 1.233-.032.423-.081.801-.142 1.13-.199.724-.625 1.412-1.279 2.067-.524.394-1.246.687-2.16.887-.459.13-.921.231-1.376.292-.455.07-.946.167-1.47.297-.463.065-.922.098-1.376.098h-6.484c-1.177.065-2.343.093-3.488.093h-3.39c.065 2.038.098 4.218.098 6.545 0 2.33-.017 5.04-.049 8.123-.032 3.083-.069 6.662-.097 10.73-.033 4.071-.049 8.794-.049 14.175v7.48c0 .66.032 1.147.097 1.477v.74c0 .232-.032.508-.097.834-.13.594-.232 1.281-.292 2.07 0 .325-.033.639-.098.932-.065.296-.166.606-.296.935-.26.26-.394.456-.394.59l-.297.594c-.328.655-.95 1.277-1.863 1.87-1.441.725-3.045.888-4.815.493-1.113-.13-1.965-.427-2.554-.887-.589-.594-1.015-1.18-1.275-1.773-.394-.724-.625-1.416-.686-2.07-.195-.59-.296-1.217-.296-1.868v-50.6h-2.457c-1.246 0-2.57-.011-3.978-.048-1.409-.032-2.737-.081-3.979-.146-1.247-.065-2.099-.13-2.554-.2-.394-.065-1.003-.162-1.819-.292-.82-.13-1.49-.26-2.018-.395-1.372-.395-2.456-1.017-3.24-1.871-.722-.854-1.08-1.802-1.08-2.855v-1.18c0-.395.065-.757.195-1.086.195-.785.719-1.44 1.572-1.965.259-.199.669-.443 1.226-.74.556-.297 1.096-.508 1.62-.639.787-.26 1.77-.46 2.947-.593.524-.066 1.048-.098 1.571-.098h8.206c2.062 0 4.238-.033 6.532-.098 3.8-.065 7.58-.081 11.348-.048 3.768.036 7.519.113 11.25.248.849.069 1.673.162 2.457.293.783.134 1.571.361 2.358.691.593.195 1.145.44 1.669.74.516.301.942.68 1.271 1.14zM314.535 81.634v-1.476l.097-7.773.094-14.477c.069-2.098.101-4.262.101-6.495v-6.89-6.301c0-1.834.065-3.905.195-6.199v-.395c.069-.654.114-1.33.146-2.017.033-.692.049-1.395.049-2.12.069-1.183.426-2.46 1.084-3.839.455-.92 1.145-1.704 2.067-2.359 1.047-.529 2.062-.79 3.045-.79.523 0 .998.021 1.425.054.426.032.836.085 1.23.146.853.13 1.608.525 2.261 1.18.394.33.751.854 1.084 1.578.126.395.248.769.341 1.13.098.363.183.741.248 1.131.065.46.114.887.15 1.278.033.394.049.785.049 1.18 0 .459-.016.87-.049 1.232-.036.362-.052.74-.052 1.13v1.672l-.593 51.092v.984c0 .2-.016.444-.049.74-.032.297-.085.64-.146 1.034-.13.33-.248.675-.345 1.037-.094.358-.215.736-.341 1.13-.199.326-.414.64-.642.932-.227.293-.507.574-.832.838-.528.525-1.38.887-2.554 1.082-1.774.395-3.443.232-5.01-.492-.787-.525-1.348-1.18-1.673-1.965-.198-.2-.292-.394-.292-.594-.069-.13-.134-.231-.199-.292-.065-.07-.13-.167-.199-.297-.126-.33-.231-.672-.292-1.034-.061-.362-.093-.74-.093-1.13-.069-.33-.118-.655-.151-.985-.032-.33-.081-.654-.146-.984-.073-.529-.073-1.086-.008-1.676zM399.04 74.052c.849 1.904.885 3.759.097 5.56-.787 1.807-2.034 3.462-3.735 4.975-1.705 1.505-3.65 2.819-5.846 3.938-2.193 1.114-4.275 1.903-6.236 2.363-2.164.455-4.442.67-6.833.638-2.392-.036-4.783-.33-7.174-.886-2.392-.562-4.714-1.38-6.975-2.461-2.262-1.082-4.341-2.412-6.241-3.986-2.29-1.904-4.076-4.182-5.355-6.842-1.275-2.656-2.208-5.5-2.797-8.517-.593-3.014-.901-6.053-.93-9.103-.036-3.05.049-5.922.248-8.615.195-2.424.686-4.954 1.469-7.578.788-2.623 1.884-5.198 3.297-7.724 1.405-2.526 3.11-4.873 5.108-7.037 1.997-2.164 4.336-4.002 7.024-5.511 2.03-1.18 4.307-1.981 6.828-2.412 2.522-.423 5.08-.525 7.67-.293 2.586.232 5.042.785 7.365 1.672 2.322.886 4.307 2.086 5.948 3.595 1.047.92 2.143 2.197 3.292 3.836 1.149 1.64 1.977 3.315 2.505 5.02.524 1.708.54 3.298.049 4.774-.491 1.477-1.815 2.477-3.979 3.002-.917.26-1.738.31-2.452.147-.723-.163-1.376-.456-1.965-.887-.589-.423-1.145-.931-1.669-1.525-.528-.594-1.015-1.184-1.474-1.774-1.571-1.903-3.406-3.2-5.501-3.888-2.099-.692-4.174-.855-6.236-.492-2.067.362-3.999 1.216-5.802 2.558-1.798 1.346-3.191 3.07-4.173 5.17-1.052 2.233-1.884 4.677-2.506 7.333-.621 2.66-.962 5.35-1.031 8.074-.069 2.721.179 5.361.739 7.924.556 2.558 1.523 4.824 2.899 6.793 1.047 1.574 2.339 2.85 3.881 3.835 1.539.985 3.192 1.672 4.962 2.07 1.774.395 3.552.456 5.355.196 1.798-.26 3.552-.85 5.258-1.774.523-.26 1.096-.638 1.721-1.13.617-.493 1.263-1.001 1.916-1.526.654-.524 1.324-1.017 2.014-1.476.686-.456 1.425-.785 2.213-.985 1.177-.394 2.468-.357 3.877.098 1.389.46 2.452 1.412 3.175 2.851zM428.91 32.706l-.199 15.457h3.93c2.688-.065 5.075-.098 7.174-.098s4.425.037 6.979.098h.491c.784 0 1.555.016 2.306.053.756.032 1.49.049 2.213.049.784.069 1.539.183 2.262.341.722.167 1.437.346 2.159.545 1.113.395 2.03.985 2.753 1.774.654.854.983 1.802.983 2.855v1.13c0 .424-.069.802-.199 1.132-.13.724-.556 1.379-1.275 1.964-.329.46-.95.785-1.868.985-.852.26-1.705.427-2.553.492-.922.2-1.836.293-2.753.293h-4.62l-18.181.097-.195 19.296 19.553.196h6.09c.459 0 .885.036 1.275.097.524.13.999.216 1.429.248.422.033.832.114 1.226.249.788.26 1.441.622 1.965 1.081.654.66 1.084 1.347 1.275 2.07.069.326.114.672.146 1.034.037.362.016.74-.049 1.13 0 1.05-.328 2.002-.982 2.856-.784.92-1.705 1.51-2.753 1.773-1.376.594-2.882.887-4.519.887-.722.065-1.469.098-2.261.098-.784 0-1.539.032-2.261.093h-.589c-5.112.13-10.414.13-15.919 0-1.312 0-2.359-.016-3.143-.048-.788-.033-1.49-.05-2.115-.05h-4.474c-1.507.131-2.753-.133-3.731-.788-.723-.456-1.279-1.082-1.673-1.867-.195-.2-.292-.399-.292-.594-.069-.13-.13-.232-.199-.297-.065-.065-.13-.163-.195-.293-.134-.33-.232-.671-.297-1.033-.065-.362-.093-.708-.093-1.033-.069-.33-.114-.66-.15-.984-.033-.33-.081-.655-.146-.985v-1.574c0-.26.016-.529.052-.79.033-.26.049-.524.049-.784v-7.68l.199-14.175V44.913c0-2.36.016-4.462.049-6.3.032-1.835.085-3.836.146-6.004v-.488c.065-.724.114-1.395.146-2.018.037-.622.053-1.265.053-1.924.065-1.31.422-2.59 1.08-3.835.26-.525.544-.985.836-1.38.292-.394.703-.723 1.23-.983.983-.594 1.998-.887 3.045-.887.524 0 .918.032 1.178.097v-.097h4.965c.686 0 1.425-.016 2.213-.049.783-.037 1.867-.053 3.24-.053 2.623-.065 5.111-.098 7.47-.098s4.783.037 7.272.098h.393c.723.07 1.474.098 2.262.098s1.539.032 2.261.097c.723 0 1.438.086 2.16.248.723.163 1.437.379 2.16.64 1.113.329 2.03.886 2.753 1.67.593.924.885 1.84.885 2.759v1.13c0 .362-.065.708-.195 1.034-.069.658-.459 1.346-1.181 2.07-.26.13-.54.293-.833.492-.296.195-.637.362-1.031.488-.398.134-.804.216-1.23.248-.426.037-.837.086-1.23.15-.524.13-.999.196-1.425.196h-5.851l-19.65.098v.297h.004zM537.097 83.505c-.069.786-.163 1.611-.292 2.461-.134.85-.362 1.636-.691 2.36-.328.789-.755 1.378-1.274 1.773-.723.655-1.576 1.017-2.554 1.086-.922.325-1.803.423-2.655.293-.849-.13-1.637-.362-2.355-.688-.922-.593-1.592-1.297-2.014-2.119-.426-.821-.739-1.692-.934-2.611-.195-.92-.292-1.871-.292-2.851V72.77l-.098-15.062v-2.46-1.623c0-.492-.016-1.05-.048-1.672-.037-.622-.053-1.525-.053-2.705 0-.2.016-.54.053-1.033.032-.492-.021-1.822-.146-3.986-2.558 4.267-4.67 7.696-6.342 10.283-1.669 2.595-3.082 4.596-4.227 6.007-1.145 1.416-2.143 2.363-2.992 2.855-.853.493-1.738.77-2.655.838-.524.066-1.048-.036-1.571-.296-.528-.26-1.032-.59-1.523-.985-.491-.394-.95-.801-1.376-1.228-.427-.427-.772-.838-1.031-1.233-1.576-1.968-3.342-4.331-5.311-7.09-1.961-2.753-3.995-6.1-6.09-10.038 0 .07-.02 1.147-.053 3.25-.032 2.103-.049 4.706-.049 7.826 0 3.12-.016 6.463-.048 10.043-.037 3.575-.069 6.906-.098 9.99-.036 3.087-.085 5.661-.146 7.724-.069 2.07-.134 3.103-.199 3.103 0 1.115-.26 2.148-.783 3.103-.528.948-1.231 1.721-2.116 2.31-.885.59-1.916.92-3.097.985-1.178.065-2.453-.26-3.829-.984-.853-.525-1.49-1.277-1.916-2.266-.427-.984-.707-1.903-.837-2.758-.069-.919-.113-1.801-.146-2.656-.036-.854-.053-1.74-.053-2.656l.098-7.68.097-15.163V44.327c0-5.71.195-11.32.593-16.835 0-.724.081-1.395.248-2.017.162-.623.373-1.233.637-1.823.524-1.049 1.21-1.834 2.063-2.359.982-.594 2.03-.89 3.142-.89.455 0 .901.02 1.328.052.422.033.832.086 1.226.147 1.311.26 2.444 1.033 3.39 2.31.95 1.281 1.851 2.38 2.704 3.303.524.59 1.084 1.31 1.669 2.164.592.854 1.181 1.74 1.77 2.656.592.923 1.145 1.806 1.672 2.656.524.854.983 1.61 1.377 2.266 1.701 2.757 3.223 5.283 4.567 7.577 1.34 2.299 2.607 4.271 3.784 5.906.199-.195.422-.471.69-.838.256-.357.54-.752.833-1.18.296-.422.556-.833.787-1.227.228-.4.41-.725.54-.985.654-1.05 1.308-2.087 1.965-3.103.65-1.017 1.356-2.1 2.112-3.25.755-1.147 1.538-2.412 2.358-3.791.821-1.38 1.783-2.953 2.899-4.723.459-.789 1.048-1.74 1.77-2.855.723-1.114 1.539-2.2 2.457-3.25.917-1.05 1.884-1.948 2.899-2.709 1.015-.752 2.046-1.13 3.097-1.13.524 0 .979.02 1.377.052.394.033.783.086 1.177.147.784.069 1.539.427 2.262 1.086.523.524.917 1.082 1.177 1.671.26.855.426 1.575.491 2.164.069.46.114.887.146 1.278.037.394.053.789.053 1.183 0 3.673.033 7.318.098 10.93.065 3.608.093 7.248.093 10.925 0 4.466.016 9.058.053 13.785.032 4.722.049 9.318.049 13.78 0 .924.032 1.908.097 2.957.057 1.046.057 2.095-.004 3.148zM566.378 32.706l-.199 15.457h3.93c2.688-.065 5.075-.098 7.174-.098s4.426.037 6.979.098h.492c.783 0 1.555.016 2.306.053.755.032 1.49.049 2.212.049.784.069 1.539.183 2.262.341.722.167 1.437.346 2.16.545 1.112.395 2.03.985 2.752 1.774.654.854.983 1.802.983 2.855v1.13c0 .424-.069.802-.199 1.132-.13.724-.556 1.379-1.275 1.964-.329.46-.95.785-1.867.985-.853.26-1.706.427-2.554.492-.922.2-1.835.293-2.753.293h-4.62l-18.181.097-.195 19.296 19.553.196h6.09c.459 0 .885.036 1.275.097.524.13.999.216 1.429.248.422.033.833.114 1.226.249.788.26 1.442.622 1.965 1.081.654.66 1.084 1.347 1.275 2.07.069.326.114.672.146 1.034.037.362.017.74-.048 1.13 0 1.05-.329 2.002-.983 2.856-.783.92-1.705 1.51-2.753 1.773-1.376.594-2.882.887-4.518.887-.723.065-1.47.098-2.262.098-.783 0-1.539.032-2.261.093h-.589c-5.111.13-10.414.13-15.919 0-1.312 0-2.359-.016-3.143-.048-.787-.033-1.49-.05-2.115-.05h-4.474c-1.506.131-2.753-.133-3.731-.788-.723-.456-1.279-1.082-1.673-1.867-.195-.2-.292-.399-.292-.594-.069-.13-.13-.232-.199-.297-.065-.065-.13-.163-.195-.293-.134-.33-.231-.671-.296-1.033-.065-.362-.094-.708-.094-1.033-.069-.33-.113-.66-.15-.984-.033-.33-.081-.655-.146-.985v-1.574c0-.26.016-.529.053-.79.032-.26.048-.524.048-.784v-7.68l.199-14.175V44.913c0-2.36.017-4.462.049-6.3.032-1.835.085-3.836.146-6.004v-.488c.065-.724.114-1.395.146-2.018.037-.622.053-1.265.053-1.924.065-1.31.422-2.59 1.08-3.835.26-.525.544-.985.836-1.38.293-.394.703-.723 1.231-.983.982-.594 1.997-.887 3.045-.887.523 0 .917.032 1.177.097v-.097h4.965c.687 0 1.425-.016 2.213-.049.784-.037 1.868-.053 3.24-.053 2.623-.065 5.112-.098 7.47-.098 2.359 0 4.783.037 7.272.098h.394c.722.07 1.473.098 2.261.098s1.539.032 2.262.097c.722 0 1.437.086 2.159.248.723.163 1.438.379 2.16.64 1.113.329 2.03.886 2.753 1.67.593.924.885 1.84.885 2.759v1.13c0 .362-.065.708-.195 1.034-.069.658-.459 1.346-1.181 2.07-.26.13-.54.293-.833.492-.296.195-.637.362-1.031.488-.398.134-.804.216-1.23.248-.426.037-.836.086-1.23.15-.524.13-.999.196-1.425.196h-5.851l-19.65.098v.297h.004zM72.997 8.343c1.059-1.836 3.436-2.373 5.269-1.312l.342.199c1.833 1.059 2.259 3.216 1.2 5.055l-1.846 3.203c2.337 1.672 3.953 3.17 5.465 4.846l2.574-4.466c2.89-5.016.83-11.322-4.177-14.22l-.34-.198C76.48-1.445 70.317.104 67.425 5.12l-2.495 4.333c2.185.503 4.269 1.183 6.25 2.048l1.818-3.158zM59.409 99.513l-50.98-29.49c-6.56-3.793-11.12-12.011-6.632-19.8 3.556-6.173 10.922-6.71 14.461-6.972.475-.034 1.093.01 1.31-.023 5.027-.757 9.077-6.031 14.995-16.304l.593-1.03c8.385-14.55 24.702-18.705 39.97-9.933 15.241 8.878 19.808 25.111 11.423 39.66l-.592 1.03c-6.461 11.217-8.05 16.836-6.28 21.352.078.203.357.712.57 1.143 1.592 3.227 4.936 9.938 1.386 16.098-4.487 7.792-13.757 8.011-20.224 4.269zm8.975-75.317c-10.576-6.07-21.488-3.514-27.175 6.355l-.592 1.029c-6.353 11.022-12.025 19.545-21.724 21.007-.574.087-1.207.12-1.915.171-2.209.163-5.95.497-6.997 2.31-1.8 3.121 1.974 6.242 3.094 6.891l50.98 29.488c.051.03 5.221 2.793 7.328-.862 1.01-1.752-.698-5.288-1.626-7.17-.34-.687-.612-1.29-.835-1.869-3.405-8.685-.005-17.419 6.988-29.55l.593-1.032c5.688-9.866 2.442-20.612-8.12-26.768zM26.908 96.705c5.284 3.056 11.791 1.908 15.653-2.802L21.506 81.725c-2.145 5.703.118 11.924 5.402 14.98z"/>
</svg>
