<svg xmlns="http://www.w3.org/2000/svg" width="653" height="268" fill="none" viewBox="0 0 653 268">
    <path fill="#fff" d="M58.12 86.12v-25.2h31.56v-12.6h-62.4V9.2H11.44v51.72h30.84v25.2H.16v12.84h100.08V86.12H58.12zm74.151-33h35.52V40.76h-35.52v-18h40.08V9.92h-55.92v76.44h9.6c19.8 0 35.28-.48 52.56-3.12l-1.44-12.6c-15.12 2.28-28.44 2.88-44.88 3V53.12zM186.631.8v110.64h15.96V.8h-15.96zm130.91 51.96c-24.96-4.2-38.64-21.36-38.64-37.56V7.28h-16.92v7.92c0 15.84-13.8 33.36-38.64 37.56l6.72 13.32c19.2-3.72 33.24-14.52 40.32-28.56 7.08 14.04 21.24 24.72 40.44 28.56l6.72-13.32zm-96.6 32.28v12.84h100.08V85.04h-100.08zm115.791-74.28v74.28h53.16V10.76h-53.16zm37.56 12.48v49.32h-21.96V23.24h21.96zM407.052.8v110.76h15.84V.8h-15.84zm39.711 11.28v12.84h36.12c-2.88 24.48-16.56 42-42.24 55.2l8.88 12.12c36.72-18.6 49.32-47.04 49.32-80.16h-52.08zm96.96 30.84h-15.48V.68h-15.84v110.4h15.84V56h15.48V42.92zM16.24 185c0-7.68 5.88-12.36 14.16-12.36 8.28 0 14.16 4.68 14.16 12.36 0 7.8-5.88 12.48-14.16 12.48-8.28 0-14.16-4.68-14.16-12.48zm43.56 0c0-14.52-12.48-25.08-29.4-25.08C13.6 159.92 1 170.48 1 185c0 14.76 12.6 25.2 29.4 25.2 16.92 0 29.4-10.44 29.4-25.2zm-29.76 61.56h57.12v-30.24H14.2v12.24h57.36v6.6H14.32V266H90.4v-12.24H30.04v-7.2zm57.12-68.52V156.8H71.32V212h15.84v-21h14.52v-12.96H87.16zm42.831 30.72h33.48v-42.72h-49.32v12.6h33.72v17.64h-33.48v46.68h8.88c16.56 0 30.6-.36 46.92-2.88l-1.2-12.96c-13.8 2.04-25.68 2.64-39 2.76v-21.12zm57.12-52.08v23.52h-18.12v12.72h18.12v17.28h-18.36v12.72h18.36v44.64h15.96V156.68h-15.96zm123.23 51.12h-61.92v-29.04h61.08v-12.84h-76.92v54.48h77.76v-12.6zm-89.4 33.36v12.96h100.08v-12.96h-100.08zm202.191-84.36h-15.96v57.48h15.96V156.8zm-25.08 40.44c-13.56 2.16-25.32 2.64-45.72 2.64v-7.8h35.88v-30.24h-51.72v12h36.12v7.2h-35.88V212h9.6c24.6 0 38.04-.24 53.28-2.76l-1.56-12zm-32.28 57.36v-6.96h57.36v-29.28h-73.68v11.88h57.48v6.36h-57.36v29.88h76.32V254.6h-60.12zm77.871-85.32v12.84h11.4c-.72 21.48-3.96 38.04-15 55.32l12.12 6.72c13.8-22.08 16.44-46.8 16.44-74.88h-24.96zm57.6 29.04h-9.12c.84-9.48 1.08-19.08 1.08-29.04h-21.361v12.84h7.921c-.48 22.56-3 41.76-15.12 60.6l12.12 6.72c7.44-12 11.64-24.84 13.92-38.4h10.56v51.48h14.64V159.2h-14.64v39.12zm21.24-41.52v110.64h15.12V156.8h-15.12zm67.43 63.72c3.84.72 7.8 1.08 12.12 1.08 4.32 0 8.4-.36 12.24-1.08v21.12h-24.36v-21.12zm12.12-45.84c15.36 0 25.68 6.24 25.68 17.28 0 10.92-10.32 17.28-25.68 17.28s-25.56-6.36-25.56-17.28c0-11.04 10.2-17.28 25.56-17.28zm27.96 66.96v-27c8.28-5.16 13.32-13.08 13.32-22.68 0-18.12-17.4-29.76-41.28-29.76-23.76 0-41.16 11.64-41.16 29.76-.12 9.6 4.92 17.52 13.32 22.68v27h-22.08v12.84h100.08v-12.84h-22.2z"/>
</svg>
