<svg xmlns="http://www.w3.org/2000/svg" width="1022" height="218" fill="none" viewBox="0 0 1022 218">
    <path fill="#fff" d="M174.68 82.36h-9.84v74.16h9.84V82.36zm-21.84 52.68c-16.08-4.56-27.48-16.68-27.48-30.24v-1.44h24.36v-7.92h-24.24V82.12h-9.84v13.32H91.16v7.92h24.48v1.44c0 14.64-11.16 27.96-27.12 33.12l4.8 7.68c12.72-4.32 22.8-13.44 27.36-25.2 5.16 10.56 15 18.72 27.6 22.32l4.56-7.68zm-8.04 15.48h-10.08v1.92c0 15-16.8 26.28-36 29.28l3.84 7.68c16.2-3 30.96-11.04 37.2-23.4 6.36 12.36 21 20.4 37.32 23.4l3.84-7.68c-19.32-3-36.12-14.28-36.12-29.28v-1.92zm143.751-37.32c-19.8-2.16-38.16-12.36-38.16-26.16v-3.96h-10.08v3.96c0 13.8-18.36 24-38.16 26.16l3.36 7.68c17.04-2.28 33.12-9.72 39.84-21.24 6.84 11.52 22.8 18.96 39.84 21.24l3.36-7.68zm-70.2 57.36h63.24v-24.6h-73.2v7.44h63.48v9.96h-63.12v25.32h76.08V181h-66.48v-10.44zm31.92-41.4v-13.92h-9.84v13.92h-43.8v7.92h97.44v-7.92h-43.8zm97.676-13.2c0-10.68 7.8-18.24 18.36-18.24 10.44 0 18.36 7.56 18.36 18.24 0 10.56-7.92 17.88-18.36 17.88-10.56 0-18.36-7.32-18.36-17.88zm67.68 4.2v41.4h9.96V82.24h-9.96v29.88h-21.84c-1.8-13.68-12.96-23.04-27.48-23.04-15.84 0-27.72 11.16-27.72 26.88 0 15.48 11.88 26.52 27.72 26.52 14.4 0 25.32-9.12 27.36-22.32h21.96zm-48.96 59.28v-25.8h-9.96v33.84h71.88v-8.04h-61.92zm112.191-76.56h19.2v-8.04h-49.08v8.04h20.4v9.72c0 19.8-8.4 39.36-23.4 48.36l6 7.32c10.68-6.72 18.48-19.32 22.2-34.08 3.72 13.68 11.16 25.2 21.6 31.44l6-7.2c-14.88-8.4-22.92-27.12-22.92-45.84v-9.72zm28.8 18h-17.76v8.04h17.76v55.32h9.36v-99.6h-9.36v36.24zm21.6-38.76v107.64h9.48V82.12h-9.48zm73.19 73.8h-30.72V127.6h30.72v28.32zm0-36.12h-30.72V91.36h-9.72v72.6h50.04v-72.6h-9.6v28.44zm55.8 4.8h-17.76V82.36h-9.84v107.4h9.84v-56.88h17.76v-8.28zm107.031 9.96h-14.88c3.96-19.08 3.96-32.4 3.96-40.08v-4.8h-35.76v8.04h26.04c-.12 8.04-.6 20.28-4.08 36.84h-34.68c4.8-20.28 4.8-34.56 4.8-41.28v-3.6h-34.8v8.04h25.2c-.12 7.92-.96 20.28-5.4 36.84h-27.72v8.04h43.8v47.28h9.84V142.6h43.68v-8.04zm51.59-33.12h25.32v-8.16h-60.12v8.16h24.96v13.68c0 18.6-13.08 38.88-28.56 46.2l5.76 7.92c12.24-6.24 22.8-19.8 27.72-35.52 5.16 14.76 15.72 27.12 28.2 32.88l5.52-7.92c-15.84-6.72-28.8-25.32-28.8-43.56v-13.68zm39.84-19.08v107.52h9.84V82.36h-9.84zm46.709 74.617c.078-4.649.605-8.321 1.582-11.016.977-2.695 2.969-5.684 5.977-8.965l7.675-7.91c3.282-3.711 4.922-7.695 4.922-11.953 0-4.102-1.074-7.305-3.222-9.61-2.149-2.343-5.274-3.515-9.375-3.515-3.985 0-7.188 1.054-9.61 3.164-2.422 2.109-3.633 4.941-3.633 8.496h-10.839c.078-6.328 2.324-11.426 6.738-15.293 4.453-3.906 10.234-5.86 17.344-5.86 7.382 0 13.125 1.993 17.226 5.977 4.141 3.946 6.211 9.375 6.211 16.289 0 6.836-3.164 13.574-9.492 20.215l-6.387 6.328c-2.851 3.164-4.277 7.715-4.277 13.653h-10.84zm-.469 18.574c0-1.758.528-3.223 1.582-4.395 1.094-1.211 2.696-1.816 4.805-1.816 2.109 0 3.711.605 4.805 1.816 1.093 1.172 1.64 2.637 1.64 4.395 0 1.758-.547 3.222-1.64 4.394-1.094 1.133-2.696 1.7-4.805 1.7-2.109 0-3.711-.567-4.805-1.7-1.054-1.172-1.582-2.636-1.582-4.394z"/>
    <path fill="#fff" fill-opacity=".7" d="M64.207 61.7v10.937c-7.018.638-10.527 5.72-10.527 15.244h10.527v21.875H42.332V88.633c0-17.136 7.292-26.113 21.875-26.934zm-32.607 0v10.937c-7.019.638-10.528 5.72-10.528 15.244H31.6v21.875H9.725V88.633c0-17.136 7.291-26.113 21.875-26.934zM957.793 119.301v-10.938c7.018-.638 10.527-5.719 10.527-15.244h-10.527V71.244h21.875v21.123c0 17.136-7.292 26.113-21.875 26.934zm32.607 0v-10.938c7.019-.638 10.53-5.719 10.53-15.244H990.4V71.244h21.88v21.123c0 17.136-7.3 26.113-21.88 26.934z"/>
</svg>
